#!OML:ASF H:\Terrain\Patient Classification 1\Terrain2\Thursday\justin.ASF
:FULLY-SPECIFIED
:DEGREES
3669
root -0.563947 17.1487 -21.3115 1194.67 98.0431 472.261
lowerback 4.82485 -0.00182948 4.77623
upperback 2.54865 0.360502 4.32519
thorax -0.0816514 0.256993 1.75746
lowerneck -11.5862 -3.82476 -9.29401
upperneck 41.2281 -2.32172 3.43683
head 17.2574 -1.2872 3.0408
rclavicle 5.86415e-015 2.66371e-014
rhumerus -34.1359 -13.861 -77.179
rradius 24.7993
rwrist -7.69633
rhand -18.1945 12.9098
rfingers 7.12502
rthumb 8.08261 -16.9156
lclavicle 5.86415e-015 2.66371e-014
lhumerus -30.8926 5.0151 82.5675
lradius 39.4627
lwrist 3.94251
lhand -20.0157 20.0799
lfingers 7.12502
lthumb 6.32467 49.9655
rfemur -9.36748 -9.29031 30.6673
rtibia 30.7515
rfoot -20.9945 5.3762
rtoes 22.4614
lfemur -12.4377 3.7447 -10.4624
ltibia 41.8626
lfoot -16.9978 -9.17289
ltoes -1.03656
3670
root -0.548828 17.1506 -21.2982 1196.29 98.0812 474.026
lowerback 4.96244 0.0685837 4.7944
upperback 2.65175 0.458441 4.23179
thorax -0.050702 0.307678 1.64596
lowerneck -11.6873 -3.80929 -9.05639
upperneck 41.3651 -2.34657 3.43585
head 17.3551 -1.26048 2.99972
rclavicle 1.15295e-014 4.45278e-014
rhumerus -34.1315 -13.6296 -77.4442
rradius 25.1714
rwrist -7.85548
rhand -18.5185 12.745
rfingers 7.12502
rthumb 7.7699 -17.0923
lclavicle 1.15295e-014 4.45278e-014
lhumerus -30.8266 4.64147 82.8282
lradius 39.2556
lwrist 3.83347
lhand -19.9318 20.0892
lfingers 7.12502
lthumb 6.40564 49.9723
rfemur -8.981 -9.50783 30.5719
rtibia 30.48
rfoot -20.4747 6.22005
rtoes 27.5225
lfemur -13.0364 4.39281 -10.3793
ltibia 43.3243
lfoot -16.4157 -9.36698
ltoes -3.58222
3671
root -0.527852 17.1479 -21.2899 1196.41 98.4023 474.342
lowerback 5.08642 -0.0700324 5.06631
upperback 2.7524 0.300462 4.38152
thorax -0.0157957 0.236087 1.65745
lowerneck -11.8212 -3.69089 -9.17689
upperneck 41.5706 -2.07284 3.3768
head 17.4869 -1.17844 3.05139
rclavicle -1.14301e-014 -6.36111e-015
rhumerus -33.9991 -13.2018 -77.5439
rradius 25.3473
rwrist -7.74065
rhand -18.6658 12.7743
rfingers 7.12502
rthumb 7.62776 -17.0681
lclavicle -1.14301e-014 -6.36111e-015
lhumerus -30.9681 5.14645 83.1051
lradius 39.0088
lwrist 3.3012
lhand -19.6332 19.9731
lfingers 7.12502
lthumb 6.69392 49.8473
rfemur -8.50308 -9.91509 30.7931
rtibia 30.187
rfoot -19.7317 6.58031
rtoes 26.6636
lfemur -13.5685 5.00479 -9.91718
ltibia 44.7184
lfoot -15.3849 -9.83455
ltoes -3.69223
3672
root -0.502387 17.145 -21.2916 1196.21 98.753 474.286
lowerback 5.09552 -0.181502 5.48592
upperback 2.87449 0.177043 4.5692
thorax 0.105964 0.186154 1.62511
lowerneck -11.9716 -3.65144 -9.42854
upperneck 41.7101 -1.89518 3.34077
head 17.6005 -1.15419 3.11766
rclavicle -7.55382e-015 -2.78299e-014
rhumerus -33.5977 -12.6266 -77.5666
rradius 25.3804
rwrist -7.63653
rhand -18.631 12.4026
rfingers 7.12502
rthumb 7.66131 -17.4387
lclavicle -7.55382e-015 -2.78299e-014
lhumerus -30.9704 5.94073 83.4304
lradius 38.5952
lwrist 2.57748
lhand -19.5721 19.8808
lfingers 7.12502
lthumb 6.75291 49.7531
rfemur -8.06537 -10.1113 31.034
rtibia 29.8646
rfoot -19.7095 5.02016
rtoes 6.23953
lfemur -14.152 5.41044 -9.49125
ltibia 46.0678
lfoot -14.9431 -10.0418
ltoes -3.93619
3673
root -0.475657 17.1507 -21.295 1196.21 98.7794 474.39
lowerback 5.09222 -0.130388 5.80159
upperback 2.94617 0.254587 4.49768
thorax 0.185358 0.231826 1.37219
lowerneck -11.9426 -3.73525 -9.25366
upperneck 41.6864 -2.05268 3.26703
head 17.5879 -1.19917 3.02274
rclavicle -8.84592e-015 -3.97569e-015
rhumerus -33.5215 -12.873 -77.4908
rradius 25.6361
rwrist -7.34362
rhand -18.7328 12.1951
rfingers 7.12502
rthumb 7.56308 -17.6497
lclavicle -8.84592e-015 -3.97569e-015
lhumerus -30.7756 5.91776 83.6496
lradius 38.0203
lwrist 2.19347
lhand -19.5872 19.2537
lfingers 7.12502
lthumb 6.73837 49.1265
rfemur -7.62496 -10.5801 30.8862
rtibia 29.45
rfoot -18.867 6.97189
rtoes 20.4139
lfemur -14.8051 5.69984 -9.47846
ltibia 47.4001
lfoot -15.3353 -9.81311
ltoes -6.5378
3674
root -0.451265 17.1484 -21.2701 1197.91 99.0571 476.328
lowerback 5.29524 0.0438889 5.77213
upperback 2.99772 0.503937 4.54576
thorax 0.129251 0.356615 1.42557
lowerneck -11.6543 -3.74274 -8.94448
upperneck 41.5425 -2.10274 3.05168
head 17.42 -1.19451 2.852
rclavicle 5.46658e-015 5.56597e-014
rhumerus -33.6653 -13.0562 -77.3444
rradius 25.9443
rwrist -7.24125
rhand -18.7778 12.3399
rfingers 7.12502
rthumb 7.51961 -17.5064
lclavicle 5.46658e-015 5.56597e-014
lhumerus -30.7841 5.61618 84.0043
lradius 37.6358
lwrist 1.89079
lhand -19.6647 18.9266
lfingers 7.12502
lthumb 6.66352 48.8018
rfemur -7.01296 -10.0187 31.113
rtibia 28.8942
rfoot -19.1433 7.01327
rtoes 23.6299
lfemur -15.3484 6.33637 -9.13221
ltibia 48.7397
lfoot -15.7828 -9.96661
ltoes -7.74085
3675
root -0.432443 17.134 -21.2783 1197.02 99.937 475.734
lowerback 5.70852 0.0954219 7.00418
upperback 3.04333 0.686183 4.64298
thorax -0.0337117 0.465171 0.831703
lowerneck -11.4734 -3.74785 -8.7158
upperneck 41.5293 -2.1131 2.87136
head 17.3564 -1.1829 2.72574
rclavicle -8.64713e-015 -3.26007e-014
rhumerus -33.6055 -12.5432 -77.5418
rradius 26.1467
rwrist -7.52066
rhand -19.4362 11.7296
rfingers 7.12502
rthumb 6.88408 -18.1385
lclavicle -8.64713e-015 -3.26007e-014
lhumerus -30.9237 4.98969 84.4699
lradius 37.4924
lwrist 1.8007
lhand -20.1649 19.4294
lfingers 7.12502
lthumb 6.18062 49.3193
rfemur -6.33003 -10.165 31.9007
rtibia 28.4011
rfoot -19.7851 6.98898
rtoes 19.639
lfemur -15.7846 6.81795 -8.07555
ltibia 49.9734
lfoot -16.1255 -10.6279
ltoes -6.37727
3676
root -0.40672 17.1171 -21.3128 1195.07 101.277 474.208
lowerback 6.21354 0.088709 9.16497
upperback 3.13719 0.872939 4.76071
thorax -0.171038 0.590625 -0.249882
lowerneck -11.4208 -3.80472 -8.58157
upperneck 41.6247 -2.19968 2.80327
head 17.4005 -1.20331 2.65958
rclavicle -2.00773e-014 -2.98177e-014
rhumerus -33.5257 -12.3026 -77.6627
rradius 26.3951
rwrist -8.03645
rhand -20.0941 11.2818
rfingers 7.12502
rthumb 6.24894 -18.6061
lclavicle -2.00773e-014 -2.98177e-014
lhumerus -31.0044 4.73355 84.7241
lradius 37.1985
lwrist 1.43319
lhand -20.3936 19.5039
lfingers 7.12502
lthumb 5.95984 49.4001
rfemur -5.4132 -10.6005 33.0667
rtibia 27.8698
rfoot -20.5068 6.90478
rtoes 13.3729
lfemur -16.0789 7.42514 -6.51605
ltibia 51.1779
lfoot -16.5098 -11.3585
ltoes -4.95616
3677
root -0.362072 17.1342 -21.2534 1196.58 100.691 475.825
lowerback 5.94296 0.149868 7.80466
upperback 3.22035 0.833087 4.84315
thorax 0.036286 0.559547 0.589142
lowerneck -11.2582 -3.76606 -8.77352
upperneck 41.5863 -2.08297 2.77928
head 17.3333 -1.18661 2.70249
rclavicle -1.6201e-014 -8.5875e-014
rhumerus -33.4205 -12.1445 -77.3325
rradius 26.69
rwrist -9.22886
rhand -19.4526 11.9693
rfingers 7.12502
rthumb 6.86824 -17.8992
lclavicle -1.6201e-014 -8.5875e-014
lhumerus -30.8619 5.49422 84.8553
lradius 36.4774
lwrist 0.348655
lhand -20.2751 19.0836
lfingers 7.12502
lthumb 6.07419 48.9766
rfemur -4.85979 -9.84031 32.521
rtibia 27.4453
rfoot -20.1519 6.31216
rtoes 15.1651
lfemur -16.7153 7.80137 -7.08561
ltibia 52.0947
lfoot -16.7377 -11.9568
ltoes -4.01782
